<svg xmlns="http://www.w3.org/2000/svg" xmlns:xlink="http://www.w3.org/1999/xlink" version="1.1" width="512" height="512" x="0" y="0" viewBox="0 0 24 24" style="enable-background:new 0 0 512 512" xml:space="preserve" class=""><g><linearGradient id="a"><stop offset="0" stop-color="#4ea2ea"/><stop offset=".245" stop-color="#484dff"/><stop offset=".484" stop-color="#cd0ef3"/><stop offset=".724" stop-color="#f640bb"/><stop offset=".95" stop-color="#fb6d64"/></linearGradient><linearGradient xlink:href="#a" id="b" x1="3" x2="11.491" y1="13" y2="28.283" gradientUnits="userSpaceOnUse"/><linearGradient xlink:href="#a" id="c" x1="3" x2="24.901" y1="1" y2="20.91" gradientUnits="userSpaceOnUse"/><g fill-rule="evenodd" clip-rule="evenodd"><path fill="url(#c)" d="M12 3a3 3 0 1 0 0 6 3 3 0 0 0 0-6zM7 6a5 5 0 1 1 10 0A5 5 0 0 1 7 6zM3 20a7 7 0 0 1 7-7h4a1 1 0 1 1 0 2h-4a5 5 0 0 0-5 5 1 1 0 0 0 1 1h6a1 1 0 1 1 0 2H6a3 3 0 0 1-3-3zm16-5a1 1 0 0 1 1 1v2h2a1 1 0 1 1 0 2h-2v2a1 1 0 0 1-2 0v-2h-2a1 1 0 1 1 0-2h2v-2a1 1 0 0 1 1-1z" opacity="1" data-original="url(#c)"/></g></g></svg>